<svg width="34" height="34" viewBox="0 0 34 34" fill="none" xmlns="http://www.w3.org/2000/svg">
<path d="M21 10H13L10 11L6 13L4 15V19L7 22L9 23L13 24H21L24 23L28 21L30 19V15L28 13L24 11L21 10Z" fill="white"/>
<path fill-rule="evenodd" clip-rule="evenodd" d="M24 9H22H19H18H15H14H11H10V10H8V11H6V12H5V13H4V14H3V15H2V19H3V20H4V21H5V22H6V23H7H8V24H10V25H13H16H17H20H24V24H26V23H28V22H29V21H30V20H31V19H32V17V15H31V14H30V13H29V12H28V11H26V10H24V9ZM27 13H26V15H27V13ZM28 15V17H29V15H28ZM18 10H19V11H18V10ZM21 11H20V13H21V11ZM12 13H13V11H12V13ZM14 10V11H15V10H14ZM17 13H16V11H17V13ZM25 12H24V13H25V12ZM11 13H10V15H11V13ZM9 13V12H8V13H9ZM14 13H15V15H14V13ZM18 15H19V13H18V15ZM23 15H22V13H23V15ZM29 19H28V20H29V19ZM27 19V17H26V19H27ZM24 19H25V21H24V19ZM22 21H23V23H22V21ZM20 24H21V23H20V24ZM19 21H18V23H19V21ZM17 23H16V24H17V23ZM24 15H25V17H24V15ZM23 17V19H22V17H23ZM20 15H21V17H20V15ZM20 19H21V21H20V19ZM18 17H19V19H18V17ZM17 15H16V17H17V15ZM15 21H14V23H15V21ZM6 14V13H7V15H6V14ZM4 15H5V17H4V15ZM8 15V17H9V15H8ZM7 17H6V19H7V17ZM16 19H17V21H16V19ZM14 17H15V19H14V17ZM13 15H12V17H13V15ZM11 21H10V23H11V21ZM12 21H13V19H12V21ZM11 19V17H10V19H11ZM8 21H9V19H8V21Z" fill="black"/>
</svg>
