<svg width="34" height="34" viewBox="0 0 34 34" fill="none" xmlns="http://www.w3.org/2000/svg">
<path d="M21 10H13L10 11L6 13L4 15V19L7 22L9 23L13 24H21L24 23L28 21L30 19V15L28 13L24 11L21 10Z" fill="white"/>
<path fill-rule="evenodd" clip-rule="evenodd" d="M24 9H10V10H8V11H6V12H5V13H4V14H3V15H2V19H3V20H4V21H5V22H6V23H8V24H10V25H24V24H26V23H28V22H29V21H30V20H31V19H32V15H31V14H30V13H29V12H28V11H26V10H24V9ZM10 11V12H8V13H6V14H5V15H4V19H5V20H6V21H7V22H9V23H13V24H21V23H24V22H26V21H28V20H29V19H30V15H29V14H28V13H26V12H24V11H21V10H13V11H10Z" fill="black"/>
</svg>
