<svg width="34" height="34" viewBox="0 0 34 34" fill="none" xmlns="http://www.w3.org/2000/svg">
<rect x="12" y="14" width="12" height="15" fill="white"/>
<path fill-rule="evenodd" clip-rule="evenodd" d="M28 3H30V5H28V3ZM26 4H24V5H26V4ZM13 7H23V10H20V13H22H23H24V14H25V15H26V29H25V30H24V31H12V30H11V29H10V15H11V14H12V13H16V10H13V7ZM13 20V16H14V15H16H17V20H15V28H14V27H13V21H14V20H13ZM19 20V15H20H22V16H23V20H19ZM5 9H12V11H9V12H8V14V15V16V21H5V16H4V15H3V11H4V10H5V9ZM27 9V7H25V9H27ZM30 7H32V9H30V7ZM30 11H28V13H30V11Z" fill="black"/>
</svg>
