<svg width="34" height="34" viewBox="0 0 34 34" fill="none" xmlns="http://www.w3.org/2000/svg">
<path d="M16.5 4.5L3.5 11.5V25L11.5 29.5H14.5L30.5 12.5V9.5L20.5 4.5H16.5Z" fill="white"/>
<path fill-rule="evenodd" clip-rule="evenodd" d="M20 3H17V4H15V5H13V6H11V7H9V8H7V9H5V10H3V11H2V26H4V27H6V28H8V29H10V30H11H12V31H13H14V32H18V31H20V30H22V29H24V28H26V27H28V26H30V25H32V10V9H30V8H28V7H26V6H24V5H22V4H20V3ZM16 5V6H14V7H12V8H10V9V10H9V9H8V10H7V11H5V12H6V13H8V14H10V15H12V16H14V17H18V16H20V15H22V14H24V13H26V12V11H27V12H28V11H30V10H28V9H27V8H25V7H24V8H23V7V6H21V5H20H19H18V6H17V5H16ZM7 11H8V12H7V11ZM6 25H5V23H6V25ZM6 21V19H5V21H6ZM5 15V17H6V16V15H5ZM7 27H8V25H7V27ZM7 23H8V21H7V23ZM7 19H8V17H7V19ZM9 27V28H10V27H9ZM10 25V23H9V25H10ZM10 19V21H9V19H10ZM9 17H10V16H9V17ZM12 19V18V17H11V19H12ZM12 27H11V25H12V27ZM12 23H11V21H12V23ZM14 29H13V27H14V29ZM14 25V23H13V25H14ZM14 21V19H13V21H14ZM16 7H15V8H16V7ZM11 11H12V12H11V11ZM14 9H13V10H14V9ZM15 11H16V12H15V11ZM14 13H13V14H14V13ZM15 15H16V16H15V15ZM18 13H17V14H18V13ZM17 9H18V10H17V9ZM20 11H19V12H20V11ZM19 7H20V8H19V7ZM22 9H21V10H22V9ZM24 11H23V12H24V11ZM25 9H26V10H25V9Z" fill="black"/>
</svg>
