<svg width="34" height="34" viewBox="0 0 34 34" fill="none" xmlns="http://www.w3.org/2000/svg">
<path d="M13.5 10V24L16.5 26L17 30.5H19.5L20 25.5L22.5 24V11H23.5V6L21 2H15.5L12.5 6V9.5L13.5 10Z" fill="white"/>
<path fill-rule="evenodd" clip-rule="evenodd" d="M13 3H14V1H15H16H20H22V3H23V4H24V6V7V12H23V13V14V15V23V25H22V27H21V29H20V31H19V33H17V31H16V29H15V27H14V25H13V24V23V22V15V13H12V10V9V4H13V3ZM23 9V7H22V5H21V4H20V3H16V4H15V5H14V7H13V9H14V8V7H20H21H22V9H23ZM14 13V12H15V13H14ZM16 11H21V13H22V11H21V10H20V9H18V10H16V11ZM21 15H20V13H16V15H15V22H14V23H16V22V21V17V15H17H18V17H17V21H20V23H21V15ZM18 25H19V27V29H18V27V25ZM11 32H9V33H11V32ZM12 32V33H16V32H12Z" fill="black"/>
</svg>
