<svg width="34" height="34" viewBox="0 0 34 34" fill="none" xmlns="http://www.w3.org/2000/svg">
<path d="M26 11V13L22 14L20 15V17L25 22V25L23 27H14L10 23L9 21V15L10 13L13 10L17 8H22L24 9L26 11Z" fill="white"/>
<path fill-rule="evenodd" clip-rule="evenodd" d="M15 7H16H17H24V8H26V9H27V10H28V13H27V14H25V15H21V17H22V18H23V19H24V20H25V21H26V22H27V25H26V26H25V27H24V28H14H13V27H12V26H11V25H10V24H9V22H8V20H7V15H8V13H9V12H10V11H11V10H12V9H13V8H15V7ZM24 9H22V8H17V9H15V10H13V11H12V12H11V13H10V15H9V20V21H10V23H11V24H12V25H13V26H14V27H23V26H24V25H25V22H24V21H23V20H22V19H21V18H20V17H19V15H20V14H21H22V13H26V11H25V10H24V9Z" fill="black"/>
</svg>
