<svg width="383" height="300" viewBox="0 0 383 300" fill="none" xmlns="http://www.w3.org/2000/svg">
<path d="M188 159H189V161H188V159Z" fill="black"/>
<path d="M218 205H219V207H218V205Z" fill="black"/>
<path d="M190 162H191V164H190V162Z" fill="black"/>
<path d="M220 208H221V210H220V208Z" fill="black"/>
<path d="M191 164H192V166H191V164Z" fill="black"/>
<path d="M221 210H222V211H221V210Z" fill="black"/>
<path d="M193 167H194V169H193V167Z" fill="black"/>
<path d="M223 213H224V214H223V213Z" fill="black"/>
<path d="M205 185H206V187H205V185Z" fill="black"/>
<path d="M235 231H236V233H235V231Z" fill="black"/>
<path d="M195 170H196V172H195V170Z" fill="black"/>
<path d="M225 216H226V218H225V216Z" fill="black"/>
<path d="M207 188H208V190H207V188Z" fill="black"/>
<path d="M237 234H238V236H237V234Z" fill="black"/>
<path d="M208 190H209V192H208V190Z" fill="black"/>
<path d="M238 236H239V237H238V236Z" fill="black"/>
<path d="M197 173H198V175H197V173Z" fill="black"/>
<path d="M227 219H228V221H227V219Z" fill="black"/>
<path d="M210 193H211V195H210V193Z" fill="black"/>
<path d="M240 239H241V240H240V239Z" fill="black"/>
<path d="M199 176H200V178H199V176Z" fill="black"/>
<path d="M229 222H230V224H229V222Z" fill="black"/>
<path d="M212 196H213V198H212V196Z" fill="black"/>
<path d="M242 242H243V244H242V242Z" fill="black"/>
<path d="M201 179H202V181H201V179Z" fill="black"/>
<path d="M231 225H232V227H231V225Z" fill="black"/>
<path d="M214 199H215V201H214V199Z" fill="black"/>
<path d="M244 245H245V247H244V245Z" fill="black"/>
<path d="M203 182H204V184H203V182Z" fill="black"/>
<path d="M233 228H234V230H233V228Z" fill="black"/>
<path d="M216 202H217V204H216V202Z" fill="black"/>
<path d="M246 248H247V250H246V248Z" fill="black"/>
<path d="M189 161H190V162H189V161Z" fill="black"/>
<path d="M219 207H220V208H219V207Z" fill="black"/>
<path d="M192 166H193V167H192V166Z" fill="black"/>
<path d="M222 211H223V213H222V211Z" fill="black"/>
<path d="M194 169H195V170H194V169Z" fill="black"/>
<path d="M224 214H225V216H224V214Z" fill="black"/>
<path d="M206 187H207V188H206V187Z" fill="black"/>
<path d="M236 233H237V234H236V233Z" fill="black"/>
<path d="M196 172H197V173H196V172Z" fill="black"/>
<path d="M226 218H227V219H226V218Z" fill="black"/>
<path d="M209 192H210V193H209V192Z" fill="black"/>
<path d="M239 237H240V239H239V237Z" fill="black"/>
<path d="M198 175H199V176H198V175Z" fill="black"/>
<path d="M228 221H229V222H228V221Z" fill="black"/>
<path d="M211 195H212V196H211V195Z" fill="black"/>
<path d="M241 240H242V242H241V240Z" fill="black"/>
<path d="M200 178H201V179H200V178Z" fill="black"/>
<path d="M230 224H231V225H230V224Z" fill="black"/>
<path d="M213 198H214V199H213V198Z" fill="black"/>
<path d="M243 244H244V245H243V244Z" fill="black"/>
<path d="M202 181H203V182H202V181Z" fill="black"/>
<path d="M232 227H233V228H232V227Z" fill="black"/>
<path d="M215 201H216V202H215V201Z" fill="black"/>
<path d="M245 247H246V248H245V247Z" fill="black"/>
<path d="M204 184H205V185H204V184Z" fill="black"/>
<path d="M234 230H235V231H234V230Z" fill="black"/>
<path d="M217 204H218V205H217V204Z" fill="black"/>
<path d="M247 250H248V251H247V250Z" fill="black"/>
<path d="M248 249H249V253H248V249Z" fill="black"/>
<path d="M249 251H250V254H249V251Z" fill="black"/>
<path d="M250 253H251V256H250V253Z" fill="black"/>
<path d="M251 255H252V256H251V255Z" fill="black"/>
<path d="M247 247H248V249H247V247Z" fill="black"/>
<path d="M246 245H247V247H246V245Z" fill="black"/>
<path d="M245 243H246V245H245V243Z" fill="black"/>
<path d="M244 241H245V243H244V241Z" fill="black"/>
<path d="M243 239H244V241H243V239Z" fill="black"/>
<path d="M242 237H243V239H242V237Z" fill="black"/>
<path d="M241 235H242V237H241V235Z" fill="black"/>
<path d="M240 233H241V235H240V233Z" fill="black"/>
<path d="M239 231H240V233H239V231Z" fill="black"/>
<path d="M238 228H239V231H238V228Z" fill="black"/>
<path d="M237 226H238V228H237V226Z" fill="black"/>
<path d="M236 224H237V226H236V224Z" fill="black"/>
<path d="M235 222H236V224H235V222Z" fill="black"/>
<path d="M234 220H235V222H234V220Z" fill="black"/>
<path d="M224 199H225V201H224V199Z" fill="black"/>
<path d="M233 218H234V220H233V218Z" fill="black"/>
<path d="M223 197H224V199H223V197Z" fill="black"/>
<path d="M232 216H233V218H232V216Z" fill="black"/>
<path d="M222 195H223V197H222V195Z" fill="black"/>
<path d="M211 172H212V174H211V172Z" fill="black"/>
<path d="M231 214H232V216H231V214Z" fill="black"/>
<path d="M221 193H222V195H221V193Z" fill="black"/>
<path d="M210 170H211V172H210V170Z" fill="black"/>
<path d="M230 212H231V214H230V212Z" fill="black"/>
<path d="M220 191H221V193H220V191Z" fill="black"/>
<path d="M209 168H210V170H209V168Z" fill="black"/>
<path d="M229 210H230V212H229V210Z" fill="black"/>
<path d="M219 189H220V191H219V189Z" fill="black"/>
<path d="M208 166H209V168H208V166Z" fill="black"/>
<path d="M228 208H229V210H228V208Z" fill="black"/>
<path d="M218 187H219V189H218V187Z" fill="black"/>
<path d="M207 164H208V166H207V164Z" fill="black"/>
<path d="M215 181H216V183H215V181Z" fill="black"/>
<path d="M204 158H205V160H204V158Z" fill="black"/>
<path d="M201 152H202V154H201V152Z" fill="black"/>
<path d="M227 206H228V208H227V206Z" fill="black"/>
<path d="M217 185H218V187H217V185Z" fill="black"/>
<path d="M206 162H207V164H206V162Z" fill="black"/>
<path d="M214 179H215V181H214V179Z" fill="black"/>
<path d="M203 156H204V158H203V156Z" fill="black"/>
<path d="M200 150H201V152H200V150Z" fill="black"/>
<path d="M226 204H227V206H226V204Z" fill="black"/>
<path d="M216 183H217V185H216V183Z" fill="black"/>
<path d="M205 160H206V162H205V160Z" fill="black"/>
<path d="M213 177H214V179H213V177Z" fill="black"/>
<path d="M202 154H203V156H202V154Z" fill="black"/>
<path d="M199 148H200V150H199V148Z" fill="black"/>
<path d="M225 201H226V204H225V201Z" fill="black"/>
<path d="M212 174H213V177H212V174Z" fill="black"/>
<path d="M198 147H199V148H198V147Z" fill="black"/>
<path d="M197 146H198V147H197V146Z" fill="black"/>
<path d="M196 145H197V146H196V145Z" fill="black"/>
<path d="M195 144H196V145H195V144Z" fill="black"/>
<path d="M194 143H195V144H194V143Z" fill="black"/>
<path d="M193 142H194V143H193V142Z" fill="black"/>
<path d="M188 144H189V146H188V144Z" fill="black"/>
<path d="M189 146H190V148H189V146Z" fill="black"/>
<path d="M190 148H191V150H190V148Z" fill="black"/>
<path d="M191 150H192V151H191V150Z" fill="black"/>
<path d="M191 141H197V142H191V141Z" fill="black"/>
<path d="M191 140H192V141H191V140Z" fill="black"/>
<path d="M190 139H191V140H190V139Z" fill="black"/>
<path d="M189 138H190V139H189V138Z" fill="black"/>
<path d="M188 137H189V138H188V137Z" fill="black"/>
<path d="M187 135H188V137H187V135Z" fill="black"/>
<path d="M186 134H187V135H186V134Z" fill="black"/>
<path d="M185 133H186V134H185V133Z" fill="black"/>
<path d="M184 132H185V133H184V132Z" fill="black"/>
<path d="M183 131H184V132H183V131Z" fill="black"/>
<path d="M182 130H183V131H182V130Z" fill="black"/>
<path d="M181 129H182V130H181V129Z" fill="black"/>
<path d="M180 128H181V129H180V128Z" fill="black"/>
<path d="M179 127H180V128H179V127Z" fill="black"/>
<path d="M177 126H179V127H177V126Z" fill="black"/>
<path d="M177 127H178V131H177V127Z" fill="black"/>
<path d="M178 131H179V135H178V131Z" fill="black"/>
<path d="M179 135H180V139H179V135Z" fill="black"/>
<path d="M180 139H181V143H180V139Z" fill="black"/>
<path d="M181 143H182V147H181V143Z" fill="black"/>
<path d="M182 146H183V151H182V146Z" fill="black"/>
<path d="M183 151H184V153H183V151Z" fill="black"/>
<path d="M184 153H185V155H184V153Z" fill="black"/>
<path d="M185 155H186V156H185V155Z" fill="black"/>
<path d="M186 156H187V157H186V156Z" fill="black"/>
<path d="M187 157H188V159H187V157Z" fill="black"/>
<path d="M186 141H187V144H186V141Z" fill="black"/>
<path d="M185 139H186V141H185V139Z" fill="black"/>
<path d="M184 137H185V139H184V137Z" fill="black"/>
<path d="M183 135H184V137H183V135Z" fill="black"/>
<path d="M182 134H183V135H182V134Z" fill="black"/>
<path d="M181 132H182V134H181V132Z" fill="black"/>
<path d="M180 130H181V132H180V130Z" fill="black"/>
<path d="M179 128H180V130H179V128Z" fill="black"/>
<path d="M178 127H179V128H178V127Z" fill="black"/>
<path d="M185 144H186V145H185V144Z" fill="black"/>
<path d="M183 145H185V146H183V145Z" fill="black"/>
<path d="M188 142H191V143H188V142Z" fill="black"/>
<path d="M197 140H202V141H197V140Z" fill="black"/>
<path d="M180 147H181V148H180V147Z" fill="black"/>
<path d="M178 148H180V149H178V148Z" fill="black"/>
<path d="M177 149H178V150H177V149Z" fill="black"/>
<path d="M175 150H177V151H175V150Z" fill="black"/>
<path d="M174 151H175V152H174V151Z" fill="black"/>
<path d="M172 152H174V153H172V152Z" fill="black"/>
<path d="M170 153H172V154H170V153Z" fill="black"/>
<path d="M169 154H170V155H169V154Z" fill="black"/>
<path d="M167 155H169V157H167V155Z" fill="black"/>
<path d="M167 156H174V157H167V156Z" fill="black"/>
<path d="M174 157H188V158H174V157Z" fill="black"/>
<path d="M187 158H196V159H187V158Z" fill="black"/>
<path d="M196 157H199V158H196V157Z" fill="black"/>
<path d="M199 156H202V157H199V156Z" fill="black"/>
<path d="M202 155H205V156H202V155Z" fill="black"/>
<path d="M205 154H208V155H205V154Z" fill="black"/>
<path d="M223 148H226V149H223V148Z" fill="black"/>
<path d="M241 142H244V143H241V142Z" fill="black"/>
<path d="M259 136H262V137H259V136Z" fill="black"/>
<path d="M277 130H280V131H277V130Z" fill="black"/>
<path d="M214 151H217V152H214V151Z" fill="black"/>
<path d="M232 145H235V146H232V145Z" fill="black"/>
<path d="M250 139H253V140H250V139Z" fill="black"/>
<path d="M268 133H271V134H268V133Z" fill="black"/>
<path d="M286 127H289V128H286V127Z" fill="black"/>
<path d="M208 153H211V154H208V153Z" fill="black"/>
<path d="M226 147H229V148H226V147Z" fill="black"/>
<path d="M244 141H247V142H244V141Z" fill="black"/>
<path d="M262 135H265V136H262V135Z" fill="black"/>
<path d="M280 129H283V130H280V129Z" fill="black"/>
<path d="M217 150H220V151H217V150Z" fill="black"/>
<path d="M235 144H238V145H235V144Z" fill="black"/>
<path d="M253 138H256V139H253V138Z" fill="black"/>
<path d="M271 132H274V133H271V132Z" fill="black"/>
<path d="M289 126H292V127H289V126Z" fill="black"/>
<path d="M295 124H298V125H295V124Z" fill="black"/>
<path d="M211 152H214V153H211V152Z" fill="black"/>
<path d="M229 146H232V147H229V146Z" fill="black"/>
<path d="M247 140H250V141H247V140Z" fill="black"/>
<path d="M265 134H268V135H265V134Z" fill="black"/>
<path d="M283 128H286V129H283V128Z" fill="black"/>
<path d="M220 149H223V150H220V149Z" fill="black"/>
<path d="M238 143H241V144H238V143Z" fill="black"/>
<path d="M256 137H259V138H256V137Z" fill="black"/>
<path d="M274 131H277V132H274V131Z" fill="black"/>
<path d="M292 125H295V126H292V125Z" fill="black"/>
<path d="M298 123H301V124H298V123Z" fill="black"/>
<path d="M303 121H305V122H303V121Z" fill="black"/>
<path d="M297 122H304V123H297V122Z" fill="black"/>
<path d="M292 123H297V124H292V123Z" fill="black"/>
<path d="M286 124H292V125H286V124Z" fill="black"/>
<path d="M280 125H286V126H280V125Z" fill="black"/>
<path d="M275 126H280V127H275V126Z" fill="black"/>
<path d="M269 127H275V128H269V127Z" fill="black"/>
<path d="M264 128H269V129H264V128Z" fill="black"/>
<path d="M258 129H264V130H258V129Z" fill="black"/>
<path d="M253 130H258V131H253V130Z" fill="black"/>
<path d="M247 131H253V132H247V131Z" fill="black"/>
<path d="M241 132H247V133H241V132Z" fill="black"/>
<path d="M236 133H241V134H236V133Z" fill="black"/>
<path d="M230 134H236V135H230V134Z" fill="black"/>
<path d="M225 135H230V136H225V135Z" fill="black"/>
<path d="M219 136H225V137H219V136Z" fill="black"/>
<path d="M214 137H219V138H214V137Z" fill="black"/>
<path d="M208 138H214V139H208V138Z" fill="black"/>
<path d="M202 139H208V140H202V139Z" fill="black"/>
<path d="M132 45H133V47H132V45Z" fill="black"/>
<path d="M133 47H134V49H133V47Z" fill="black"/>
<path d="M134 49H135V51H134V49Z" fill="black"/>
<path d="M135 51H136V52H135V51Z" fill="black"/>
<path d="M136 52H137V54H136V52Z" fill="black"/>
<path d="M137 54H138V56H137V54Z" fill="black"/>
<path d="M141 61H142V63H141V61Z" fill="black"/>
<path d="M145 68H146V70H145V68Z" fill="black"/>
<path d="M149 75H150V77H149V75Z" fill="black"/>
<path d="M158 91H159V93H158V91Z" fill="black"/>
<path d="M162 98H163V100H162V98Z" fill="black"/>
<path d="M166 105H167V107H166V105Z" fill="black"/>
<path d="M153 82H154V84H153V82Z" fill="black"/>
<path d="M138 56H139V58H138V56Z" fill="black"/>
<path d="M142 63H143V65H142V63Z" fill="black"/>
<path d="M146 70H147V72H146V70Z" fill="black"/>
<path d="M150 77H151V79H150V77Z" fill="black"/>
<path d="M159 93H160V95H159V93Z" fill="black"/>
<path d="M163 100H164V102H163V100Z" fill="black"/>
<path d="M167 107H168V109H167V107Z" fill="black"/>
<path d="M154 84H155V86H154V84Z" fill="black"/>
<path d="M139 58H140V60H139V58Z" fill="black"/>
<path d="M143 65H144V67H143V65Z" fill="black"/>
<path d="M147 72H148V74H147V72Z" fill="black"/>
<path d="M151 79H152V81H151V79Z" fill="black"/>
<path d="M160 95H161V97H160V95Z" fill="black"/>
<path d="M164 102H165V104H164V102Z" fill="black"/>
<path d="M168 109H169V111H168V109Z" fill="black"/>
<path d="M155 86H156V88H155V86Z" fill="black"/>
<path d="M140 60H141V61H140V60Z" fill="black"/>
<path d="M144 67H145V68H144V67Z" fill="black"/>
<path d="M148 74H149V75H148V74Z" fill="black"/>
<path d="M152 81H153V82H152V81Z" fill="black"/>
<path d="M161 97H162V98H161V97Z" fill="black"/>
<path d="M165 104H166V105H165V104Z" fill="black"/>
<path d="M169 111H170V113H169V111Z" fill="black"/>
<path d="M156 88H157V90H156V88Z" fill="black"/>
<path d="M157 90H158V91H157V90Z" fill="black"/>
<path d="M170 113H171V114H170V113Z" fill="black"/>
<path d="M171 114H172V116H171V114Z" fill="black"/>
<path d="M172 116H173V118H172V116Z" fill="black"/>
<path d="M173 118H174V120H173V118Z" fill="black"/>
<path d="M174 120H175V121H174V120Z" fill="black"/>
<path d="M175 121H176V123H175V121Z" fill="black"/>
<path d="M176 123H177V127H176V123Z" fill="black"/>
<path d="M275 270H290V280H275V270Z" fill="black"/>
<path d="M344 217H358V227H344V217Z" fill="black"/>
<path d="M369 145H383V155H369V145Z" fill="black"/>
<path d="M344 73H358V83H344V73Z" fill="black"/>
<path d="M276 20H290V30H276V20Z" fill="black"/>
<path d="M184 0H198V10H184V0Z" fill="black"/>
<path d="M92 20H106V30H92V20Z" fill="black"/>
<path d="M24 73H38V83H24V73Z" fill="black"/>
<path d="M0 145H14V155H0V145Z" fill="black"/>
<path d="M24 217H38V227H24V217Z" fill="black"/>
<path d="M92 270H106V280H92V270Z" fill="black"/>
<path d="M184 290H198V300H184V290Z" fill="black"/>
<path d="M210 6H211V7H210V6Z" fill="black"/>
<path d="M229 8H230V9H229V8Z" fill="black"/>
<path d="M248 12H249V13H248V12Z" fill="black"/>
<path d="M266 18H267V19H266V18Z" fill="black"/>
<path d="M299 33H300V34H299V33Z" fill="black"/>
<path d="M314 43H315V44H314V43Z" fill="black"/>
<path d="M328 53H329V54H328V53Z" fill="black"/>
<path d="M340 65H341V66H340V65Z" fill="black"/>
<path d="M359 91H360V92H359V91Z" fill="black"/>
<path d="M366 106H367V107H366V106Z" fill="black"/>
<path d="M371 120H372V121H371V120Z" fill="black"/>
<path d="M374 135H375V136H374V135Z" fill="black"/>
<path d="M374 165H375V166H374V165Z" fill="black"/>
<path d="M371 180H372V181H371V180Z" fill="black"/>
<path d="M366 194H367V195H366V194Z" fill="black"/>
<path d="M359 209H360V210H359V209Z" fill="black"/>
<path d="M340 235H341V236H340V235Z" fill="black"/>
<path d="M328 247H329V248H328V247Z" fill="black"/>
<path d="M314 257H315V258H314V257Z" fill="black"/>
<path d="M299 267H300V268H299V267Z" fill="black"/>
<path d="M266 282H267V283H266V282Z" fill="black"/>
<path d="M248 288H249V289H248V288Z" fill="black"/>
<path d="M229 292H230V293H229V292Z" fill="black"/>
<path d="M210 294H211V295H210V294Z" fill="black"/>
<path d="M172 294H173V295H172V294Z" fill="black"/>
<path d="M153 292H154V293H153V292Z" fill="black"/>
<path d="M134 288H135V289H134V288Z" fill="black"/>
<path d="M116 282H117V283H116V282Z" fill="black"/>
<path d="M83 267H84V268H83V267Z" fill="black"/>
<path d="M68 257H69V258H68V257Z" fill="black"/>
<path d="M54 247H55V248H54V247Z" fill="black"/>
<path d="M42 235H43V236H42V235Z" fill="black"/>
<path d="M8 165H9V166H8V165Z" fill="black"/>
<path d="M11 180H12V181H11V180Z" fill="black"/>
<path d="M16 194H17V195H16V194Z" fill="black"/>
<path d="M23 209H24V210H23V209Z" fill="black"/>
<path d="M8 135H9V136H8V135Z" fill="black"/>
<path d="M11 120H12V121H11V120Z" fill="black"/>
<path d="M16 106H17V107H16V106Z" fill="black"/>
<path d="M23 91H24V92H23V91Z" fill="black"/>
<path d="M42 65H43V66H42V65Z" fill="black"/>
<path d="M54 53H55V54H54V53Z" fill="black"/>
<path d="M68 43H69V44H68V43Z" fill="black"/>
<path d="M83 33H84V34H83V33Z" fill="black"/>
<path d="M116 18H117V19H116V18Z" fill="black"/>
<path d="M134 12H135V13H134V12Z" fill="black"/>
<path d="M153 8H154V9H153V8Z" fill="black"/>
<path d="M172 6H173V7H172V6Z" fill="black"/>
</svg>
