<svg width="430" height="168" viewBox="0 0 430 168" fill="none" xmlns="http://www.w3.org/2000/svg">
<path d="M61.6045 17.2686L66.1699 0.983398H67.7168L63.1621 17.2686H61.6045ZM78.453 17.2686L73.8875 0.983398H75.4452L79.9998 17.2686H78.453ZM90.736 17.2686L86.1706 0.983398H87.7282L92.2829 17.2686H90.736ZM98.4536 17.2686L103.019 0.983398H104.566L100.011 17.2686H98.4536ZM115.302 17.2686L110.737 0.983398H112.294L116.849 17.2686H115.302ZM127.585 17.2686L123.02 0.983398H124.577L129.132 17.2686H127.585ZM139.868 17.2686L135.303 0.983398H136.86L141.415 17.2686H139.868ZM209.001 17.2686L213.566 0.983398H215.113L210.559 17.2686H209.001ZM225.85 17.2686L221.284 0.983398H222.842L227.396 17.2686H225.85ZM238.133 17.2686L233.567 0.983398H235.125L239.679 17.2686H238.133ZM319.548 17.2686L324.114 0.983398H325.661L321.106 17.2686H319.548ZM336.397 17.2686L331.832 0.983398H333.389L337.944 17.2686H336.397ZM61.6045 42.2686L66.1699 25.9834H67.7168L63.1621 42.2686H61.6045ZM78.453 42.2686L73.8875 25.9834H75.4452L79.9998 42.2686H78.453ZM90.736 42.2686L86.1706 25.9834H87.7282L92.2829 42.2686H90.736ZM98.4536 42.2686L103.019 25.9834H104.566L100.011 42.2686H98.4536ZM115.302 42.2686L110.737 25.9834H112.294L116.849 42.2686H115.302ZM135.303 42.2686L139.868 25.9834H141.415L136.86 42.2686H135.303ZM152.151 42.2686L147.586 25.9834H149.143L153.698 42.2686H152.151ZM164.434 42.2686L159.869 25.9834H161.426L165.981 42.2686H164.434ZM209.001 42.2686L213.566 25.9834H215.113L210.559 42.2686H209.001ZM225.85 42.2686L221.284 25.9834H222.842L227.396 42.2686H225.85ZM238.133 42.2686L233.567 25.9834H235.125L239.679 42.2686H238.133ZM307.265 42.2686L311.831 25.9834H313.378L308.823 42.2686H307.265ZM324.114 42.2686L319.548 25.9834H321.106L325.661 42.2686H324.114ZM348.68 42.2686L344.115 25.9834H345.672L350.227 42.2686H348.68ZM360.963 42.2686L356.398 25.9834H357.955L362.51 42.2686H360.963ZM61.6045 67.2686L66.1699 50.9834H67.7168L63.1621 67.2686H61.6045ZM78.453 67.2686L73.8875 50.9834H75.4452L79.9998 67.2686H78.453ZM90.736 67.2686L86.1706 50.9834H87.7282L92.2829 67.2686H90.736ZM98.4536 67.2686L103.019 50.9834H104.566L100.011 67.2686H98.4536ZM115.302 67.2686L110.737 50.9834H112.294L116.849 67.2686H115.302ZM127.585 67.2686L123.02 50.9834H124.577L129.132 67.2686H127.585ZM147.586 67.2686L152.151 50.9834H153.698L149.143 67.2686H147.586ZM164.434 67.2686L159.869 50.9834H161.426L165.981 67.2686H164.434ZM176.717 67.2686L172.152 50.9834H173.71L178.264 67.2686H176.717ZM209.001 67.2686L213.566 50.9834H215.113L210.559 67.2686H209.001ZM225.85 67.2686L221.284 50.9834H222.842L227.396 67.2686H225.85ZM238.133 67.2686L233.567 50.9834H235.125L239.679 67.2686H238.133ZM294.982 67.2686L299.548 50.9834H301.095L296.54 67.2686H294.982ZM311.831 67.2686L307.265 50.9834H308.823L313.378 67.2686H311.831ZM344.115 67.2686L348.68 50.9834H350.227L345.672 67.2686H344.115ZM360.963 67.2686L356.398 50.9834H357.955L362.51 67.2686H360.963ZM373.246 67.2686L368.681 50.9834H370.238L374.793 67.2686H373.246ZM61.6045 92.2686L66.1699 75.9834H67.7168L63.1621 92.2686H61.6045ZM78.453 92.2686L73.8875 75.9834H75.4452L79.9998 92.2686H78.453ZM90.736 92.2686L86.1706 75.9834H87.7282L92.2829 92.2686H90.736ZM98.4536 92.2686L103.019 75.9834H104.566L100.011 92.2686H98.4536ZM115.302 92.2686L110.737 75.9834H112.294L116.849 92.2686H115.302ZM127.585 92.2686L123.02 75.9834H124.577L129.132 92.2686H127.585ZM159.869 92.2686L164.434 75.9834H165.981L161.426 92.2686H159.869ZM176.717 92.2686L172.152 75.9834H173.71L178.264 92.2686H176.717ZM189 92.2686L184.435 75.9834H185.993L190.547 92.2686H189ZM209.001 92.2686L213.566 75.9834H215.113L210.559 92.2686H209.001ZM225.85 92.2686L221.284 75.9834H222.842L227.396 92.2686H225.85ZM238.133 92.2686L233.567 75.9834H235.125L239.679 92.2686H238.133ZM282.699 92.2686L287.265 75.9834H288.812L284.257 92.2686H282.699ZM299.548 92.2686L294.982 75.9834H296.54L301.095 92.2686H299.548ZM311.831 92.2686L307.265 75.9834H308.823L313.378 92.2686H311.831ZM356.398 92.2686L360.963 75.9834H362.51L357.955 92.2686H356.398ZM373.246 92.2686L368.681 75.9834H370.238L374.793 92.2686H373.246ZM385.529 92.2686L380.964 75.9834H382.521L387.076 92.2686H385.529ZM61.6045 117.269L66.1699 100.983H67.7168L63.1621 117.269H61.6045ZM78.453 117.269L73.8875 100.983H75.4452L79.9998 117.269H78.453ZM90.736 117.269L86.1706 100.983H87.7282L92.2829 117.269H90.736ZM98.4536 117.269L103.019 100.983H104.566L100.011 117.269H98.4536ZM115.302 117.269L110.737 100.983H112.294L116.849 117.269H115.302ZM127.585 117.269L123.02 100.983H124.577L129.132 117.269H127.585ZM172.152 117.269L176.717 100.983H178.264L173.71 117.269H172.152ZM189 117.269L184.435 100.983H185.993L190.547 117.269H189ZM209.001 117.269L213.566 100.983H215.113L210.559 117.269H209.001ZM225.85 117.269L221.284 100.983H222.842L227.396 117.269H225.85ZM238.133 117.269L233.567 100.983H235.125L239.679 117.269H238.133ZM270.416 117.269L274.982 100.983H276.529L271.974 117.269H270.416ZM287.265 117.269L282.699 100.983H284.257L288.812 117.269H287.265ZM299.548 117.269L294.982 100.983H296.54L301.095 117.269H299.548ZM311.831 117.269L307.265 100.983H308.823L313.378 117.269H311.831ZM324.114 117.269L319.548 100.983H321.106L325.661 117.269H324.114ZM336.397 117.269L331.832 100.983H333.389L337.944 117.269H336.397ZM348.68 117.269L344.115 100.983H345.672L350.227 117.269H348.68ZM368.681 117.269L373.246 100.983H374.793L370.238 117.269H368.681ZM385.529 117.269L380.964 100.983H382.521L387.076 117.269H385.529ZM397.812 117.269L393.247 100.983H394.804L399.359 117.269H397.812ZM0.189255 142.269L4.75468 125.983H6.30156L1.74687 142.269H0.189255ZM17.0377 142.269L12.4723 125.983H14.0299L18.5846 142.269H17.0377ZM61.6045 142.269L66.1699 125.983H67.7168L63.1621 142.269H61.6045ZM78.453 142.269L73.8875 125.983H75.4452L79.9998 142.269H78.453ZM90.736 142.269L86.1706 125.983H87.7282L92.2829 142.269H90.736ZM98.4536 142.269L103.019 125.983H104.566L100.011 142.269H98.4536ZM115.302 142.269L110.737 125.983H112.294L116.849 142.269H115.302ZM127.585 142.269L123.02 125.983H124.577L129.132 142.269H127.585ZM184.435 142.269L189 125.983H190.547L185.993 142.269H184.435ZM201.283 142.269L196.718 125.983H198.276L202.83 142.269H201.283ZM225.85 142.269L221.284 125.983H222.842L227.396 142.269H225.85ZM238.133 142.269L233.567 125.983H235.125L239.679 142.269H238.133ZM258.133 142.269L262.699 125.983H264.246L259.691 142.269H258.133ZM274.982 142.269L270.416 125.983H271.974L276.529 142.269H274.982ZM287.265 142.269L282.699 125.983H284.257L288.812 142.269H287.265ZM380.964 142.269L385.529 125.983H387.076L382.521 142.269H380.964ZM397.812 142.269L393.247 125.983H394.804L399.359 142.269H397.812ZM410.095 142.269L405.53 125.983H407.087L411.642 142.269H410.095ZM18.4097 167.269L22.9752 150.983H24.522L19.9673 167.269H18.4097ZM35.2582 167.269L30.6928 150.983H32.2504L36.8051 167.269H35.2582ZM47.5412 167.269L42.9758 150.983H44.5334L49.0881 167.269H47.5412ZM59.8243 167.269L55.2589 150.983H56.8165L61.3712 167.269H59.8243ZM72.1073 167.269L67.5419 150.983H69.0995L73.6542 167.269H72.1073ZM104.391 167.269L108.956 150.983H110.503L105.949 167.269H104.391ZM121.24 167.269L116.674 150.983H118.232L122.786 167.269H121.24ZM133.523 167.269L128.957 150.983H130.515L135.069 167.269H133.523ZM214.938 167.269L219.504 150.983H221.051L216.496 167.269H214.938ZM231.787 167.269L227.222 150.983H228.779L233.334 167.269H231.787ZM244.07 167.269L239.505 150.983H241.062L245.617 167.269H244.07ZM251.788 167.269L256.353 150.983H257.9L253.345 167.269H251.788ZM268.636 167.269L264.071 150.983H265.628L270.183 167.269H268.636ZM280.919 167.269L276.354 150.983H277.911L282.466 167.269H280.919ZM399.184 167.269L403.75 150.983H405.296L400.742 167.269H399.184ZM416.033 167.269L411.467 150.983H413.025L417.58 167.269H416.033ZM428.316 167.269L423.75 150.983H425.308L429.863 167.269H428.316Z" fill="white"/>
</svg>
