<svg width="34" height="34" viewBox="0 0 34 34" fill="none" xmlns="http://www.w3.org/2000/svg">
<path d="M25 23L27 26H8L9 25L12 19L15 13L17 9H18L19 11L22 17L25 23Z" fill="white"/>
<path fill-rule="evenodd" clip-rule="evenodd" d="M17 7H18V8H19V10H20V12H21V14H22V16H23V18H24V20H25V22H26V24H27V26H28V27H7V26H8V24H9V22H10V20H11V18H12V17V16H13V14H14V12H15V10H16V8H17V7ZM10 24V23H11V24H10ZM12 24V26H13V24H12ZM25 24H24V26H26V25H25V24ZM22 22H23V24H22V22ZM20 24H21V26H20V24ZM19 22H18V24H19V22ZM17 24H16V26H17V24ZM14 22H15V24H14V22ZM12 20V21V22H13V20H12ZM21 22H20V20H21V22ZM17 20H16V22H17V20ZM15 20H14V18H15V20ZM23 20V19H22V20H23ZM18 20H19V18H18V20ZM21 16V17V18H20V16H21ZM14 15V16H15V15H14ZM16 18V16H17V18H16ZM19 16H18V14H19V16ZM16 14H17V12H16V13V14ZM19 11V12H18V11H19Z" fill="black"/>
</svg>
