<svg width="33" height="14" viewBox="0 0 33 14" fill="none" xmlns="http://www.w3.org/2000/svg">
<rect x="2" width="1" height="1" fill="black"/>
<rect y="2" width="1" height="1" fill="black"/>
<rect x="1" y="1" width="1" height="1" fill="black"/>
<rect x="5" width="1" height="1" fill="black"/>
<rect x="1" y="4" width="1" height="1" fill="black"/>
<rect x="3" y="2" width="1" height="1" fill="black"/>
<rect x="4" y="1" width="1" height="1" fill="black"/>
<rect y="5" width="1" height="1" fill="black"/>
<rect x="2" y="3" width="1" height="1" fill="black"/>
<rect x="8" width="1" height="1" fill="black"/>
<rect y="8" width="1" height="1" fill="black"/>
<rect x="4" y="4" width="1" height="1" fill="black"/>
<rect x="6" y="2" width="1" height="1" fill="black"/>
<rect x="2" y="6" width="1" height="1" fill="black"/>
<rect x="7" y="1" width="1" height="1" fill="black"/>
<rect x="3" y="5" width="1" height="1" fill="black"/>
<rect x="5" y="3" width="1" height="1" fill="black"/>
<rect x="1" y="7" width="1" height="1" fill="black"/>
<rect x="11" width="1" height="1" fill="black"/>
<rect x="3" y="8" width="1" height="1" fill="black"/>
<rect x="7" y="4" width="1" height="1" fill="black"/>
<rect x="9" y="2" width="1" height="1" fill="black"/>
<rect x="1" y="10" width="1" height="1" fill="black"/>
<rect x="5" y="6" width="1" height="1" fill="black"/>
<rect x="10" y="1" width="1" height="1" fill="black"/>
<rect x="2" y="9" width="1" height="1" fill="black"/>
<rect x="6" y="5" width="1" height="1" fill="black"/>
<rect x="8" y="3" width="1" height="1" fill="black"/>
<rect y="11" width="1" height="1" fill="black"/>
<rect x="4" y="7" width="1" height="1" fill="black"/>
<rect x="14" width="1" height="1" fill="black"/>
<rect x="6" y="8" width="1" height="1" fill="black"/>
<rect x="10" y="4" width="1" height="1" fill="black"/>
<rect x="2" y="12" width="1" height="1" fill="black"/>
<rect x="12" y="2" width="1" height="1" fill="black"/>
<rect x="4" y="10" width="1" height="1" fill="black"/>
<rect x="8" y="6" width="1" height="1" fill="black"/>
<rect x="13" y="1" width="1" height="1" fill="black"/>
<rect x="5" y="9" width="1" height="1" fill="black"/>
<rect x="9" y="5" width="1" height="1" fill="black"/>
<rect x="1" y="13" width="1" height="1" fill="black"/>
<rect x="11" y="3" width="1" height="1" fill="black"/>
<rect x="3" y="11" width="1" height="1" fill="black"/>
<rect x="7" y="7" width="1" height="1" fill="black"/>
<rect x="17" width="1" height="1" fill="black"/>
<rect x="9" y="8" width="1" height="1" fill="black"/>
<rect x="13" y="4" width="1" height="1" fill="black"/>
<rect x="5" y="12" width="1" height="1" fill="black"/>
<rect x="15" y="2" width="1" height="1" fill="black"/>
<rect x="7" y="10" width="1" height="1" fill="black"/>
<rect x="11" y="6" width="1" height="1" fill="black"/>
<rect x="16" y="1" width="1" height="1" fill="black"/>
<rect x="8" y="9" width="1" height="1" fill="black"/>
<rect x="12" y="5" width="1" height="1" fill="black"/>
<rect x="4" y="13" width="1" height="1" fill="black"/>
<rect x="14" y="3" width="1" height="1" fill="black"/>
<rect x="6" y="11" width="1" height="1" fill="black"/>
<rect x="10" y="7" width="1" height="1" fill="black"/>
<rect x="20" width="1" height="1" fill="black"/>
<rect x="12" y="8" width="1" height="1" fill="black"/>
<rect x="16" y="4" width="1" height="1" fill="black"/>
<rect x="8" y="12" width="1" height="1" fill="black"/>
<rect x="18" y="2" width="1" height="1" fill="black"/>
<rect x="10" y="10" width="1" height="1" fill="black"/>
<rect x="14" y="6" width="1" height="1" fill="black"/>
<rect x="19" y="1" width="1" height="1" fill="black"/>
<rect x="11" y="9" width="1" height="1" fill="black"/>
<rect x="15" y="5" width="1" height="1" fill="black"/>
<rect x="7" y="13" width="1" height="1" fill="black"/>
<rect x="17" y="3" width="1" height="1" fill="black"/>
<rect x="9" y="11" width="1" height="1" fill="black"/>
<rect x="13" y="7" width="1" height="1" fill="black"/>
<rect x="23" width="1" height="1" fill="black"/>
<rect x="15" y="8" width="1" height="1" fill="black"/>
<rect x="19" y="4" width="1" height="1" fill="black"/>
<rect x="11" y="12" width="1" height="1" fill="black"/>
<rect x="21" y="2" width="1" height="1" fill="black"/>
<rect x="13" y="10" width="1" height="1" fill="black"/>
<rect x="17" y="6" width="1" height="1" fill="black"/>
<rect x="22" y="1" width="1" height="1" fill="black"/>
<rect x="14" y="9" width="1" height="1" fill="black"/>
<rect x="18" y="5" width="1" height="1" fill="black"/>
<rect x="10" y="13" width="1" height="1" fill="black"/>
<rect x="20" y="3" width="1" height="1" fill="black"/>
<rect x="12" y="11" width="1" height="1" fill="black"/>
<rect x="16" y="7" width="1" height="1" fill="black"/>
<rect x="26" width="1" height="1" fill="black"/>
<rect x="18" y="8" width="1" height="1" fill="black"/>
<rect x="22" y="4" width="1" height="1" fill="black"/>
<rect x="14" y="12" width="1" height="1" fill="black"/>
<rect x="24" y="2" width="1" height="1" fill="black"/>
<rect x="16" y="10" width="1" height="1" fill="black"/>
<rect x="20" y="6" width="1" height="1" fill="black"/>
<rect x="25" y="1" width="1" height="1" fill="black"/>
<rect x="17" y="9" width="1" height="1" fill="black"/>
<rect x="21" y="5" width="1" height="1" fill="black"/>
<rect x="13" y="13" width="1" height="1" fill="black"/>
<rect x="23" y="3" width="1" height="1" fill="black"/>
<rect x="15" y="11" width="1" height="1" fill="black"/>
<rect x="19" y="7" width="1" height="1" fill="black"/>
<rect x="29" width="1" height="1" fill="black"/>
<rect x="21" y="8" width="1" height="1" fill="black"/>
<rect x="25" y="4" width="1" height="1" fill="black"/>
<rect x="17" y="12" width="1" height="1" fill="black"/>
<rect x="27" y="2" width="1" height="1" fill="black"/>
<rect x="19" y="10" width="1" height="1" fill="black"/>
<rect x="23" y="6" width="1" height="1" fill="black"/>
<rect x="28" y="1" width="1" height="1" fill="black"/>
<rect x="20" y="9" width="1" height="1" fill="black"/>
<rect x="24" y="5" width="1" height="1" fill="black"/>
<rect x="16" y="13" width="1" height="1" fill="black"/>
<rect x="26" y="3" width="1" height="1" fill="black"/>
<rect x="18" y="11" width="1" height="1" fill="black"/>
<rect x="22" y="7" width="1" height="1" fill="black"/>
<rect x="32" width="1" height="1" fill="black"/>
<rect x="24" y="8" width="1" height="1" fill="black"/>
<rect x="28" y="4" width="1" height="1" fill="black"/>
<rect x="20" y="12" width="1" height="1" fill="black"/>
<rect x="30" y="2" width="1" height="1" fill="black"/>
<rect x="22" y="10" width="1" height="1" fill="black"/>
<rect x="26" y="6" width="1" height="1" fill="black"/>
<rect x="31" y="1" width="1" height="1" fill="black"/>
<rect x="23" y="9" width="1" height="1" fill="black"/>
<rect x="27" y="5" width="1" height="1" fill="black"/>
<rect x="19" y="13" width="1" height="1" fill="black"/>
<rect x="29" y="3" width="1" height="1" fill="black"/>
<rect x="21" y="11" width="1" height="1" fill="black"/>
<rect x="25" y="7" width="1" height="1" fill="black"/>
<rect x="27" y="8" width="1" height="1" fill="black"/>
<rect x="31" y="4" width="1" height="1" fill="black"/>
<rect x="23" y="12" width="1" height="1" fill="black"/>
<rect x="25" y="10" width="1" height="1" fill="black"/>
<rect x="29" y="6" width="1" height="1" fill="black"/>
<rect x="26" y="9" width="1" height="1" fill="black"/>
<rect x="30" y="5" width="1" height="1" fill="black"/>
<rect x="22" y="13" width="1" height="1" fill="black"/>
<rect x="32" y="3" width="1" height="1" fill="black"/>
<rect x="24" y="11" width="1" height="1" fill="black"/>
<rect x="28" y="7" width="1" height="1" fill="black"/>
<rect x="30" y="8" width="1" height="1" fill="black"/>
<rect x="26" y="12" width="1" height="1" fill="black"/>
<rect x="28" y="10" width="1" height="1" fill="black"/>
<rect x="32" y="6" width="1" height="1" fill="black"/>
<rect x="29" y="9" width="1" height="1" fill="black"/>
<rect x="25" y="13" width="1" height="1" fill="black"/>
<rect x="27" y="11" width="1" height="1" fill="black"/>
<rect x="31" y="7" width="1" height="1" fill="black"/>
<rect x="29" y="12" width="1" height="1" fill="black"/>
<rect x="31" y="10" width="1" height="1" fill="black"/>
<rect x="32" y="9" width="1" height="1" fill="black"/>
<rect x="28" y="13" width="1" height="1" fill="black"/>
<rect x="30" y="11" width="1" height="1" fill="black"/>
<rect x="32" y="12" width="1" height="1" fill="black"/>
<rect x="31" y="13" width="1" height="1" fill="black"/>
</svg>
