<svg width="34" height="34" viewBox="0 0 34 34" fill="none" xmlns="http://www.w3.org/2000/svg">
<path d="M8 9L4 12.5V20.5L8 24H26L30 20.5V12.5L26 9H8Z" fill="white"/>
<path fill-rule="evenodd" clip-rule="evenodd" d="M6 10H5V11H4V12H3V15V17V19V21V22H4V23H5V24H6V25H7H8H10H11H14H15H18H19H22H23H26H28V24H29V23H30V22H31V12H30V11H29V10H28V9H26H25H24H21H20H17H16H13H12H9H8H6V10ZM28 13H29V15H28V13ZM28 17H29V19H28V17ZM27 19V21H26V19H27ZM25 21H24V23H25V21ZM27 17V15H26V17H27ZM25 17H24V19H25V17ZM27 13V12V11H26V13H27ZM25 13H24V15H25V13ZM23 24V23H22V24H23ZM25 10H24V11H25V10ZM23 11H22V13H23V11ZM20 13H21V15H20V13ZM22 17V15H23V17H22ZM20 21H21V23H20V21ZM23 21H22V19H23V21ZM21 17V19H20V17H21ZM19 23H18V24H19V23ZM21 10H20V11H21V10ZM19 11H18V13H19V11ZM16 13H17V15H16V13ZM18 17V15H19V17H18ZM16 21H17V23H16V21ZM19 21H18V19H19V21ZM17 17V19H16V17H17ZM15 23H14V24H15V23ZM17 10H16V11H17V10ZM15 11H14V13H15V11ZM12 13H13V15H12V13ZM14 17V15H15V17H14ZM12 21H13V23H12V21ZM15 21H14V19H15V21ZM13 17V19H12V17H13ZM11 23H10V24H11V23ZM13 10H12V11H13V10ZM11 11H10V13H11V11ZM8 13H9V15H8V13ZM10 17V15H11V17H10ZM8 21H9V23H8V21ZM11 21H10V19H11V21ZM9 17V19H8V17H9ZM6 19V21H7V19H6ZM7 15V17H6V15H7ZM9 10H8V11H9V10ZM7 13V12H6V13H7Z" fill="black"/>
</svg>
