<svg width="34" height="14" viewBox="0 0 34 14" fill="none" xmlns="http://www.w3.org/2000/svg">
<rect width="1" height="1" fill="black"/>
<rect x="16" width="1" height="1" fill="black"/>
<rect x="8" y="8" width="1" height="1" fill="black"/>
<rect x="12" y="4" width="1" height="1" fill="black"/>
<rect x="4" y="12" width="1" height="1" fill="black"/>
<rect x="14" y="3" width="1" height="1" fill="black"/>
<rect x="6" y="11" width="1" height="1" fill="black"/>
<rect x="10" y="7" width="1" height="1" fill="black"/>
<rect x="2" y="1" width="1" height="1" fill="black"/>
<rect y="2" width="1" height="1" fill="black"/>
<rect x="18" y="1" width="1" height="1" fill="black"/>
<rect x="10" y="9" width="1" height="1" fill="black"/>
<rect x="14" y="5" width="1" height="1" fill="black"/>
<rect x="6" y="13" width="1" height="1" fill="black"/>
<rect x="16" y="2" width="1" height="1" fill="black"/>
<rect x="8" y="10" width="1" height="1" fill="black"/>
<rect x="12" y="6" width="1" height="1" fill="black"/>
<rect x="4" width="1" height="1" fill="black"/>
<rect y="4" width="1" height="1" fill="black"/>
<rect x="2" y="3" width="1" height="1" fill="black"/>
<rect x="20" width="1" height="1" fill="black"/>
<rect x="12" y="8" width="1" height="1" fill="black"/>
<rect x="16" y="4" width="1" height="1" fill="black"/>
<rect x="8" y="12" width="1" height="1" fill="black"/>
<rect x="18" y="3" width="1" height="1" fill="black"/>
<rect x="10" y="11" width="1" height="1" fill="black"/>
<rect x="14" y="7" width="1" height="1" fill="black"/>
<rect x="6" y="1" width="1" height="1" fill="black"/>
<rect x="2" y="5" width="1" height="1" fill="black"/>
<rect x="4" y="2" width="1" height="1" fill="black"/>
<rect y="6" width="1" height="1" fill="black"/>
<rect x="22" y="1" width="1" height="1" fill="black"/>
<rect x="14" y="9" width="1" height="1" fill="black"/>
<rect x="18" y="5" width="1" height="1" fill="black"/>
<rect x="10" y="13" width="1" height="1" fill="black"/>
<rect x="20" y="2" width="1" height="1" fill="black"/>
<rect x="12" y="10" width="1" height="1" fill="black"/>
<rect x="16" y="6" width="1" height="1" fill="black"/>
<rect x="8" width="1" height="1" fill="black"/>
<rect y="8" width="1" height="1" fill="black"/>
<rect x="4" y="4" width="1" height="1" fill="black"/>
<rect x="6" y="3" width="1" height="1" fill="black"/>
<rect x="2" y="7" width="1" height="1" fill="black"/>
<rect x="24" width="1" height="1" fill="black"/>
<rect x="16" y="8" width="1" height="1" fill="black"/>
<rect x="20" y="4" width="1" height="1" fill="black"/>
<rect x="12" y="12" width="1" height="1" fill="black"/>
<rect x="22" y="3" width="1" height="1" fill="black"/>
<rect x="14" y="11" width="1" height="1" fill="black"/>
<rect x="18" y="7" width="1" height="1" fill="black"/>
<rect x="10" y="1" width="1" height="1" fill="black"/>
<rect x="2" y="9" width="1" height="1" fill="black"/>
<rect x="6" y="5" width="1" height="1" fill="black"/>
<rect x="8" y="2" width="1" height="1" fill="black"/>
<rect y="10" width="1" height="1" fill="black"/>
<rect x="4" y="6" width="1" height="1" fill="black"/>
<rect x="26" y="1" width="1" height="1" fill="black"/>
<rect x="18" y="9" width="1" height="1" fill="black"/>
<rect x="22" y="5" width="1" height="1" fill="black"/>
<rect x="14" y="13" width="1" height="1" fill="black"/>
<rect x="24" y="2" width="1" height="1" fill="black"/>
<rect x="16" y="10" width="1" height="1" fill="black"/>
<rect x="20" y="6" width="1" height="1" fill="black"/>
<rect x="12" width="1" height="1" fill="black"/>
<rect x="4" y="8" width="1" height="1" fill="black"/>
<rect x="8" y="4" width="1" height="1" fill="black"/>
<rect y="12" width="1" height="1" fill="black"/>
<rect x="10" y="3" width="1" height="1" fill="black"/>
<rect x="2" y="11" width="1" height="1" fill="black"/>
<rect x="6" y="7" width="1" height="1" fill="black"/>
<rect x="28" width="1" height="1" fill="black"/>
<rect x="20" y="8" width="1" height="1" fill="black"/>
<rect x="24" y="4" width="1" height="1" fill="black"/>
<rect x="16" y="12" width="1" height="1" fill="black"/>
<rect x="26" y="3" width="1" height="1" fill="black"/>
<rect x="18" y="11" width="1" height="1" fill="black"/>
<rect x="22" y="7" width="1" height="1" fill="black"/>
<rect x="14" y="1" width="1" height="1" fill="black"/>
<rect x="6" y="9" width="1" height="1" fill="black"/>
<rect x="10" y="5" width="1" height="1" fill="black"/>
<rect x="2" y="13" width="1" height="1" fill="black"/>
<rect x="12" y="2" width="1" height="1" fill="black"/>
<rect x="4" y="10" width="1" height="1" fill="black"/>
<rect x="8" y="6" width="1" height="1" fill="black"/>
<rect x="30" y="1" width="1" height="1" fill="black"/>
<rect x="22" y="9" width="1" height="1" fill="black"/>
<rect x="26" y="5" width="1" height="1" fill="black"/>
<rect x="18" y="13" width="1" height="1" fill="black"/>
<rect x="28" y="2" width="1" height="1" fill="black"/>
<rect x="20" y="10" width="1" height="1" fill="black"/>
<rect x="24" y="6" width="1" height="1" fill="black"/>
<rect x="32" width="1" height="1" fill="black"/>
<rect x="24" y="8" width="1" height="1" fill="black"/>
<rect x="28" y="4" width="1" height="1" fill="black"/>
<rect x="20" y="12" width="1" height="1" fill="black"/>
<rect x="30" y="3" width="1" height="1" fill="black"/>
<rect x="22" y="11" width="1" height="1" fill="black"/>
<rect x="26" y="7" width="1" height="1" fill="black"/>
<rect x="26" y="9" width="1" height="1" fill="black"/>
<rect x="30" y="5" width="1" height="1" fill="black"/>
<rect x="22" y="13" width="1" height="1" fill="black"/>
<rect x="32" y="2" width="1" height="1" fill="black"/>
<rect x="24" y="10" width="1" height="1" fill="black"/>
<rect x="28" y="6" width="1" height="1" fill="black"/>
<rect x="28" y="8" width="1" height="1" fill="black"/>
<rect x="32" y="4" width="1" height="1" fill="black"/>
<rect x="24" y="12" width="1" height="1" fill="black"/>
<rect x="26" y="11" width="1" height="1" fill="black"/>
<rect x="30" y="7" width="1" height="1" fill="black"/>
<rect x="30" y="9" width="1" height="1" fill="black"/>
<rect x="26" y="13" width="1" height="1" fill="black"/>
<rect x="28" y="10" width="1" height="1" fill="black"/>
<rect x="32" y="6" width="1" height="1" fill="black"/>
<rect x="32" y="8" width="1" height="1" fill="black"/>
<rect x="28" y="12" width="1" height="1" fill="black"/>
<rect x="30" y="11" width="1" height="1" fill="black"/>
<rect x="30" y="13" width="1" height="1" fill="black"/>
<rect x="32" y="10" width="1" height="1" fill="black"/>
<rect x="32" y="12" width="1" height="1" fill="black"/>
</svg>
