<svg width="66" height="21" viewBox="0 0 66 21" fill="none" xmlns="http://www.w3.org/2000/svg">
<rect width="66" height="21" rx="10" fill="white"/>
<rect x="3" y="1" width="2" height="2" fill="black"/>
<rect x="2" y="2" width="1" height="3" fill="black"/>
<rect x="1" y="3" width="1" height="3" fill="black"/>
<rect y="5" width="2" height="1" fill="black"/>
<rect width="2" height="2" transform="matrix(-1 0 0 1 63 1)" fill="black"/>
<rect width="1" height="3" transform="matrix(-1 0 0 1 64 2)" fill="black"/>
<rect width="1" height="3" transform="matrix(-1 0 0 1 65 3)" fill="black"/>
<rect width="2" height="1" transform="matrix(-1 0 0 1 66 5)" fill="black"/>
<rect x="3" y="18" width="2" height="2" fill="black"/>
<rect x="2" y="16" width="1" height="3" fill="black"/>
<rect width="1" height="3" transform="matrix(1 0 0 -1 1 18)" fill="black"/>
<rect width="2" height="1" transform="matrix(1 0 0 -1 0 16)" fill="black"/>
<rect width="2" height="2" transform="matrix(-1 0 0 1 63 18)" fill="black"/>
<rect width="1" height="3" transform="matrix(-1 0 0 1 64 16)" fill="black"/>
<rect x="65" y="18" width="1" height="3" transform="rotate(180 65 18)" fill="black"/>
<rect x="66" y="16" width="2" height="1" transform="rotate(180 66 16)" fill="black"/>
<rect x="5" width="56" height="2" fill="black"/>
<rect x="5" y="19" width="56" height="2" fill="black"/>
<rect y="6" width="2" height="9" fill="black"/>
<rect width="2" height="9" transform="matrix(-1 0 0 1 66 6)" fill="black"/>
</svg>
