<svg width="34" height="34" viewBox="0 0 34 34" fill="none" xmlns="http://www.w3.org/2000/svg">
<rect x="4" y="10" width="26" height="14" fill="white"/>
<path fill-rule="evenodd" clip-rule="evenodd" d="M3 9H5H6H9H10H13H14H17H18H21H22H25H26H29H31V10V24V25H29H27H24H23H20H19H16H15H12H11H8H7H5H4H3V24V10V9ZM28 24H27V23H28V24ZM28 11H27V13H28V11ZM28 15H27V17H28V15ZM28 19H27V21H28V19ZM26 21V23H25V21H26ZM23 23H24V24H23V23ZM26 10H25V11H26V10ZM20 24H19V23H20V24ZM18 21V23H17V21H18ZM15 23H16V24H15V23ZM18 10H17V11H18V10ZM19 11V13H20V11H19ZM21 11H22V10H21V11ZM12 24H11V23H12V24ZM10 21V23H9V21H10ZM7 23H8V24H7V23ZM10 10H9V11H10V10ZM11 11V13H12V11H11ZM13 11H14V10H13V11ZM26 17H25V19H26V17ZM26 13V15H25V13H26ZM24 19H23V21H24V19ZM24 15V17H23V15H24ZM24 11H23V13H24V11ZM22 21V23H21V21H22ZM20 21H19V19H20V21ZM21 19H22V17H21V19ZM20 17V15H19V17H20ZM18 17H17V19H18V17ZM18 13V15H17V13H18ZM21 15V13H22V15H21ZM16 19H15V21H16V19ZM16 15V17H15V15H16ZM16 11H15V13H16V11ZM14 21V23H13V21H14ZM12 21H11V19H12V21ZM13 19H14V17H13V19ZM12 17V15H11V17H12ZM10 17H9V19H10V17ZM10 13V15H9V13H10ZM13 15V13H14V15H13ZM8 19H7V21H8V19ZM8 15V17H7V15H8ZM8 11H7V13H8V11ZM6 21V23H5V21H6ZM6 10H5V11H6V10ZM6 17H5V19H6V17ZM6 13V15H5V13H6Z" fill="black"/>
</svg>
