<svg width="36" height="14" viewBox="0 0 36 14" fill="none" xmlns="http://www.w3.org/2000/svg">
<rect x="1" width="1" height="1" fill="black"/>
<rect y="1" width="1" height="1" fill="black"/>
<rect x="5" width="1" height="1" fill="black"/>
<rect x="1" y="4" width="1" height="1" fill="black"/>
<rect x="3" y="2" width="1" height="1" fill="black"/>
<rect x="4" y="1" width="1" height="1" fill="black"/>
<rect y="5" width="1" height="1" fill="black"/>
<rect x="2" y="3" width="1" height="1" fill="black"/>
<rect x="9" width="1" height="1" fill="black"/>
<rect x="1" y="8" width="1" height="1" fill="black"/>
<rect x="5" y="4" width="1" height="1" fill="black"/>
<rect x="7" y="2" width="1" height="1" fill="black"/>
<rect x="3" y="6" width="1" height="1" fill="black"/>
<rect x="8" y="1" width="1" height="1" fill="black"/>
<rect y="9" width="1" height="1" fill="black"/>
<rect x="4" y="5" width="1" height="1" fill="black"/>
<rect x="6" y="3" width="1" height="1" fill="black"/>
<rect x="2" y="7" width="1" height="1" fill="black"/>
<rect x="13" width="1" height="1" fill="black"/>
<rect x="5" y="8" width="1" height="1" fill="black"/>
<rect x="9" y="4" width="1" height="1" fill="black"/>
<rect x="1" y="12" width="1" height="1" fill="black"/>
<rect x="11" y="2" width="1" height="1" fill="black"/>
<rect x="3" y="10" width="1" height="1" fill="black"/>
<rect x="7" y="6" width="1" height="1" fill="black"/>
<rect x="12" y="1" width="1" height="1" fill="black"/>
<rect x="4" y="9" width="1" height="1" fill="black"/>
<rect x="8" y="5" width="1" height="1" fill="black"/>
<rect y="13" width="1" height="1" fill="black"/>
<rect x="10" y="3" width="1" height="1" fill="black"/>
<rect x="2" y="11" width="1" height="1" fill="black"/>
<rect x="6" y="7" width="1" height="1" fill="black"/>
<rect x="17" width="1" height="1" fill="black"/>
<rect x="9" y="8" width="1" height="1" fill="black"/>
<rect x="13" y="4" width="1" height="1" fill="black"/>
<rect x="5" y="12" width="1" height="1" fill="black"/>
<rect x="15" y="2" width="1" height="1" fill="black"/>
<rect x="7" y="10" width="1" height="1" fill="black"/>
<rect x="11" y="6" width="1" height="1" fill="black"/>
<rect x="16" y="1" width="1" height="1" fill="black"/>
<rect x="8" y="9" width="1" height="1" fill="black"/>
<rect x="12" y="5" width="1" height="1" fill="black"/>
<rect x="4" y="13" width="1" height="1" fill="black"/>
<rect x="14" y="3" width="1" height="1" fill="black"/>
<rect x="6" y="11" width="1" height="1" fill="black"/>
<rect x="10" y="7" width="1" height="1" fill="black"/>
<rect x="21" width="1" height="1" fill="black"/>
<rect x="13" y="8" width="1" height="1" fill="black"/>
<rect x="17" y="4" width="1" height="1" fill="black"/>
<rect x="9" y="12" width="1" height="1" fill="black"/>
<rect x="19" y="2" width="1" height="1" fill="black"/>
<rect x="11" y="10" width="1" height="1" fill="black"/>
<rect x="15" y="6" width="1" height="1" fill="black"/>
<rect x="20" y="1" width="1" height="1" fill="black"/>
<rect x="12" y="9" width="1" height="1" fill="black"/>
<rect x="16" y="5" width="1" height="1" fill="black"/>
<rect x="8" y="13" width="1" height="1" fill="black"/>
<rect x="18" y="3" width="1" height="1" fill="black"/>
<rect x="10" y="11" width="1" height="1" fill="black"/>
<rect x="14" y="7" width="1" height="1" fill="black"/>
<rect x="25" width="1" height="1" fill="black"/>
<rect x="17" y="8" width="1" height="1" fill="black"/>
<rect x="21" y="4" width="1" height="1" fill="black"/>
<rect x="13" y="12" width="1" height="1" fill="black"/>
<rect x="23" y="2" width="1" height="1" fill="black"/>
<rect x="15" y="10" width="1" height="1" fill="black"/>
<rect x="19" y="6" width="1" height="1" fill="black"/>
<rect x="24" y="1" width="1" height="1" fill="black"/>
<rect x="16" y="9" width="1" height="1" fill="black"/>
<rect x="20" y="5" width="1" height="1" fill="black"/>
<rect x="12" y="13" width="1" height="1" fill="black"/>
<rect x="22" y="3" width="1" height="1" fill="black"/>
<rect x="14" y="11" width="1" height="1" fill="black"/>
<rect x="18" y="7" width="1" height="1" fill="black"/>
<rect x="29" width="1" height="1" fill="black"/>
<rect x="21" y="8" width="1" height="1" fill="black"/>
<rect x="25" y="4" width="1" height="1" fill="black"/>
<rect x="17" y="12" width="1" height="1" fill="black"/>
<rect x="27" y="2" width="1" height="1" fill="black"/>
<rect x="19" y="10" width="1" height="1" fill="black"/>
<rect x="23" y="6" width="1" height="1" fill="black"/>
<rect x="28" y="1" width="1" height="1" fill="black"/>
<rect x="20" y="9" width="1" height="1" fill="black"/>
<rect x="24" y="5" width="1" height="1" fill="black"/>
<rect x="16" y="13" width="1" height="1" fill="black"/>
<rect x="26" y="3" width="1" height="1" fill="black"/>
<rect x="18" y="11" width="1" height="1" fill="black"/>
<rect x="22" y="7" width="1" height="1" fill="black"/>
<rect x="33" width="1" height="1" fill="black"/>
<rect x="35" y="2" width="1" height="1" fill="black"/>
<rect x="25" y="8" width="1" height="1" fill="black"/>
<rect x="29" y="4" width="1" height="1" fill="black"/>
<rect x="21" y="12" width="1" height="1" fill="black"/>
<rect x="31" y="2" width="1" height="1" fill="black"/>
<rect x="23" y="10" width="1" height="1" fill="black"/>
<rect x="27" y="6" width="1" height="1" fill="black"/>
<rect x="32" y="1" width="1" height="1" fill="black"/>
<rect x="24" y="9" width="1" height="1" fill="black"/>
<rect x="28" y="5" width="1" height="1" fill="black"/>
<rect x="20" y="13" width="1" height="1" fill="black"/>
<rect x="30" y="3" width="1" height="1" fill="black"/>
<rect x="34" y="3" width="1" height="1" fill="black"/>
<rect x="22" y="11" width="1" height="1" fill="black"/>
<rect x="26" y="7" width="1" height="1" fill="black"/>
<rect x="29" y="8" width="1" height="1" fill="black"/>
<rect x="33" y="4" width="1" height="1" fill="black"/>
<rect x="35" y="6" width="1" height="1" fill="black"/>
<rect x="25" y="12" width="1" height="1" fill="black"/>
<rect x="27" y="10" width="1" height="1" fill="black"/>
<rect x="31" y="6" width="1" height="1" fill="black"/>
<rect x="28" y="9" width="1" height="1" fill="black"/>
<rect x="32" y="5" width="1" height="1" fill="black"/>
<rect x="24" y="13" width="1" height="1" fill="black"/>
<rect x="26" y="11" width="1" height="1" fill="black"/>
<rect x="30" y="7" width="1" height="1" fill="black"/>
<rect x="34" y="7" width="1" height="1" fill="black"/>
<rect x="33" y="8" width="1" height="1" fill="black"/>
<rect x="35" y="10" width="1" height="1" fill="black"/>
<rect x="29" y="12" width="1" height="1" fill="black"/>
<rect x="31" y="10" width="1" height="1" fill="black"/>
<rect x="32" y="9" width="1" height="1" fill="black"/>
<rect x="28" y="13" width="1" height="1" fill="black"/>
<rect x="30" y="11" width="1" height="1" fill="black"/>
<rect x="34" y="11" width="1" height="1" fill="black"/>
<rect x="33" y="12" width="1" height="1" fill="black"/>
<rect x="32" y="13" width="1" height="1" fill="black"/>
<rect width="1" height="1" transform="matrix(-1 0 0 1 10 0)" fill="black"/>
<rect width="1" height="1" transform="matrix(-1 0 0 1 18 8)" fill="black"/>
<rect width="1" height="1" transform="matrix(-1 0 0 1 14 4)" fill="black"/>
<rect width="1" height="1" transform="matrix(-1 0 0 1 22 12)" fill="black"/>
<rect width="1" height="1" transform="matrix(-1 0 0 1 12 2)" fill="black"/>
<rect width="1" height="1" transform="matrix(-1 0 0 1 20 10)" fill="black"/>
<rect width="1" height="1" transform="matrix(-1 0 0 1 16 6)" fill="black"/>
<rect width="1" height="1" transform="matrix(-1 0 0 1 11 1)" fill="black"/>
<rect width="1" height="1" transform="matrix(-1 0 0 1 19 9)" fill="black"/>
<rect width="1" height="1" transform="matrix(-1 0 0 1 15 5)" fill="black"/>
<rect width="1" height="1" transform="matrix(-1 0 0 1 23 13)" fill="black"/>
<rect width="1" height="1" transform="matrix(-1 0 0 1 13 3)" fill="black"/>
<rect width="1" height="1" transform="matrix(-1 0 0 1 21 11)" fill="black"/>
<rect width="1" height="1" transform="matrix(-1 0 0 1 17 7)" fill="black"/>
<rect width="1" height="1" transform="matrix(-1 0 0 1 6 0)" fill="black"/>
<rect width="1" height="1" transform="matrix(-1 0 0 1 14 8)" fill="black"/>
<rect width="1" height="1" transform="matrix(-1 0 0 1 10 4)" fill="black"/>
<rect width="1" height="1" transform="matrix(-1 0 0 1 18 12)" fill="black"/>
<rect width="1" height="1" transform="matrix(-1 0 0 1 8 2)" fill="black"/>
<rect width="1" height="1" transform="matrix(-1 0 0 1 16 10)" fill="black"/>
<rect width="1" height="1" transform="matrix(-1 0 0 1 12 6)" fill="black"/>
<rect width="1" height="1" transform="matrix(-1 0 0 1 7 1)" fill="black"/>
<rect width="1" height="1" transform="matrix(-1 0 0 1 15 9)" fill="black"/>
<rect width="1" height="1" transform="matrix(-1 0 0 1 11 5)" fill="black"/>
<rect width="1" height="1" transform="matrix(-1 0 0 1 19 13)" fill="black"/>
<rect width="1" height="1" transform="matrix(-1 0 0 1 9 3)" fill="black"/>
<rect width="1" height="1" transform="matrix(-1 0 0 1 17 11)" fill="black"/>
<rect width="1" height="1" transform="matrix(-1 0 0 1 13 7)" fill="black"/>
<rect width="1" height="1" transform="matrix(-1 0 0 1 2 0)" fill="black"/>
<rect width="1" height="1" transform="matrix(-1 0 0 1 10 8)" fill="black"/>
<rect width="1" height="1" transform="matrix(-1 0 0 1 6 4)" fill="black"/>
<rect width="1" height="1" transform="matrix(-1 0 0 1 14 12)" fill="black"/>
<rect width="1" height="1" transform="matrix(-1 0 0 1 4 2)" fill="black"/>
<rect width="1" height="1" transform="matrix(-1 0 0 1 12 10)" fill="black"/>
<rect width="1" height="1" transform="matrix(-1 0 0 1 8 6)" fill="black"/>
<rect width="1" height="1" transform="matrix(-1 0 0 1 3 1)" fill="black"/>
<rect width="1" height="1" transform="matrix(-1 0 0 1 11 9)" fill="black"/>
<rect width="1" height="1" transform="matrix(-1 0 0 1 7 5)" fill="black"/>
<rect width="1" height="1" transform="matrix(-1 0 0 1 15 13)" fill="black"/>
<rect width="1" height="1" transform="matrix(-1 0 0 1 5 3)" fill="black"/>
<rect width="1" height="1" transform="matrix(-1 0 0 1 13 11)" fill="black"/>
<rect width="1" height="1" transform="matrix(-1 0 0 1 9 7)" fill="black"/>
<rect width="1" height="1" transform="matrix(-1 0 0 1 6 8)" fill="black"/>
<rect width="1" height="1" transform="matrix(-1 0 0 1 2 4)" fill="black"/>
<rect width="1" height="1" transform="matrix(-1 0 0 1 10 12)" fill="black"/>
<rect width="1" height="1" transform="matrix(-1 0 0 1 8 10)" fill="black"/>
<rect width="1" height="1" transform="matrix(-1 0 0 1 4 6)" fill="black"/>
<rect width="1" height="1" transform="matrix(-1 0 0 1 7 9)" fill="black"/>
<rect width="1" height="1" transform="matrix(-1 0 0 1 3 5)" fill="black"/>
<rect width="1" height="1" transform="matrix(-1 0 0 1 11 13)" fill="black"/>
<rect width="1" height="1" transform="matrix(-1 0 0 1 1 3)" fill="black"/>
<rect width="1" height="1" transform="matrix(-1 0 0 1 9 11)" fill="black"/>
<rect width="1" height="1" transform="matrix(-1 0 0 1 5 7)" fill="black"/>
<rect width="1" height="1" transform="matrix(-1 0 0 1 2 8)" fill="black"/>
<rect width="1" height="1" transform="matrix(-1 0 0 1 6 12)" fill="black"/>
<rect width="1" height="1" transform="matrix(-1 0 0 1 4 10)" fill="black"/>
<rect width="1" height="1" transform="matrix(-1 0 0 1 3 9)" fill="black"/>
<rect width="1" height="1" transform="matrix(-1 0 0 1 7 13)" fill="black"/>
<rect width="1" height="1" transform="matrix(-1 0 0 1 5 11)" fill="black"/>
<rect width="1" height="1" transform="matrix(-1 0 0 1 1 7)" fill="black"/>
<rect width="1" height="1" transform="matrix(-1 0 0 1 2 12)" fill="black"/>
<rect width="1" height="1" transform="matrix(-1 0 0 1 3 13)" fill="black"/>
<rect width="1" height="1" transform="matrix(-1 0 0 1 1 11)" fill="black"/>
<rect width="1" height="1" transform="matrix(-1 0 0 1 34 0)" fill="black"/>
<rect width="1" height="1" transform="matrix(-1 0 0 1 36 2)" fill="black"/>
<rect width="1" height="1" transform="matrix(-1 0 0 1 30 0)" fill="black"/>
<rect width="1" height="1" transform="matrix(-1 0 0 1 34 4)" fill="black"/>
<rect width="1" height="1" transform="matrix(-1 0 0 1 36 6)" fill="black"/>
<rect width="1" height="1" transform="matrix(-1 0 0 1 32 2)" fill="black"/>
<rect width="1" height="1" transform="matrix(-1 0 0 1 31 1)" fill="black"/>
<rect width="1" height="1" transform="matrix(-1 0 0 1 35 1)" fill="black"/>
<rect width="1" height="1" transform="matrix(-1 0 0 1 33 3)" fill="black"/>
<rect width="1" height="1" transform="matrix(-1 0 0 1 26 0)" fill="black"/>
<rect width="1" height="1" transform="matrix(-1 0 0 1 34 8)" fill="black"/>
<rect width="1" height="1" transform="matrix(-1 0 0 1 36 10)" fill="black"/>
<rect width="1" height="1" transform="matrix(-1 0 0 1 30 4)" fill="black"/>
<rect width="1" height="1" transform="matrix(-1 0 0 1 28 2)" fill="black"/>
<rect width="1" height="1" transform="matrix(-1 0 0 1 32 6)" fill="black"/>
<rect width="1" height="1" transform="matrix(-1 0 0 1 27 1)" fill="black"/>
<rect width="1" height="1" transform="matrix(-1 0 0 1 31 5)" fill="black"/>
<rect width="1" height="1" transform="matrix(-1 0 0 1 35 5)" fill="black"/>
<rect width="1" height="1" transform="matrix(-1 0 0 1 29 3)" fill="black"/>
<rect width="1" height="1" transform="matrix(-1 0 0 1 33 7)" fill="black"/>
<rect width="1" height="1" transform="matrix(-1 0 0 1 22 0)" fill="black"/>
<rect width="1" height="1" transform="matrix(-1 0 0 1 30 8)" fill="black"/>
<rect width="1" height="1" transform="matrix(-1 0 0 1 26 4)" fill="black"/>
<rect width="1" height="1" transform="matrix(-1 0 0 1 34 12)" fill="black"/>
<rect width="1" height="1" transform="matrix(-1 0 0 1 24 2)" fill="black"/>
<rect width="1" height="1" transform="matrix(-1 0 0 1 32 10)" fill="black"/>
<rect width="1" height="1" transform="matrix(-1 0 0 1 28 6)" fill="black"/>
<rect width="1" height="1" transform="matrix(-1 0 0 1 23 1)" fill="black"/>
<rect width="1" height="1" transform="matrix(-1 0 0 1 31 9)" fill="black"/>
<rect width="1" height="1" transform="matrix(-1 0 0 1 35 9)" fill="black"/>
<rect width="1" height="1" transform="matrix(-1 0 0 1 27 5)" fill="black"/>
<rect width="1" height="1" transform="matrix(-1 0 0 1 25 3)" fill="black"/>
<rect width="1" height="1" transform="matrix(-1 0 0 1 33 11)" fill="black"/>
<rect width="1" height="1" transform="matrix(-1 0 0 1 29 7)" fill="black"/>
<rect width="1" height="1" transform="matrix(-1 0 0 1 18 0)" fill="black"/>
<rect width="1" height="1" transform="matrix(-1 0 0 1 26 8)" fill="black"/>
<rect width="1" height="1" transform="matrix(-1 0 0 1 22 4)" fill="black"/>
<rect width="1" height="1" transform="matrix(-1 0 0 1 30 12)" fill="black"/>
<rect width="1" height="1" transform="matrix(-1 0 0 1 20 2)" fill="black"/>
<rect width="1" height="1" transform="matrix(-1 0 0 1 28 10)" fill="black"/>
<rect width="1" height="1" transform="matrix(-1 0 0 1 24 6)" fill="black"/>
<rect width="1" height="1" transform="matrix(-1 0 0 1 19 1)" fill="black"/>
<rect width="1" height="1" transform="matrix(-1 0 0 1 27 9)" fill="black"/>
<rect width="1" height="1" transform="matrix(-1 0 0 1 23 5)" fill="black"/>
<rect width="1" height="1" transform="matrix(-1 0 0 1 31 13)" fill="black"/>
<rect width="1" height="1" transform="matrix(-1 0 0 1 35 13)" fill="black"/>
<rect width="1" height="1" transform="matrix(-1 0 0 1 21 3)" fill="black"/>
<rect width="1" height="1" transform="matrix(-1 0 0 1 29 11)" fill="black"/>
<rect width="1" height="1" transform="matrix(-1 0 0 1 25 7)" fill="black"/>
<rect width="1" height="1" transform="matrix(-1 0 0 1 14 0)" fill="black"/>
<rect width="1" height="1" transform="matrix(-1 0 0 1 22 8)" fill="black"/>
<rect width="1" height="1" transform="matrix(-1 0 0 1 18 4)" fill="black"/>
<rect width="1" height="1" transform="matrix(-1 0 0 1 26 12)" fill="black"/>
<rect width="1" height="1" transform="matrix(-1 0 0 1 16 2)" fill="black"/>
<rect width="1" height="1" transform="matrix(-1 0 0 1 24 10)" fill="black"/>
<rect width="1" height="1" transform="matrix(-1 0 0 1 20 6)" fill="black"/>
<rect width="1" height="1" transform="matrix(-1 0 0 1 15 1)" fill="black"/>
<rect width="1" height="1" transform="matrix(-1 0 0 1 23 9)" fill="black"/>
<rect width="1" height="1" transform="matrix(-1 0 0 1 19 5)" fill="black"/>
<rect width="1" height="1" transform="matrix(-1 0 0 1 27 13)" fill="black"/>
<rect width="1" height="1" transform="matrix(-1 0 0 1 17 3)" fill="black"/>
<rect width="1" height="1" transform="matrix(-1 0 0 1 25 11)" fill="black"/>
<rect width="1" height="1" transform="matrix(-1 0 0 1 21 7)" fill="black"/>
</svg>
