<svg width="32" height="11" viewBox="0 0 32 11" fill="none" xmlns="http://www.w3.org/2000/svg">
<rect y="2" width="1" height="1" fill="black"/>
<rect x="4" y="2" width="1" height="1" fill="black"/>
<rect x="6" y="2" width="1" height="1" fill="black"/>
<rect x="2" y="2" width="1" height="1" fill="black"/>
<rect y="6" width="1" height="1" fill="black"/>
<rect x="4" y="6" width="1" height="1" fill="black"/>
<rect x="6" y="6" width="1" height="1" fill="black"/>
<rect y="10" width="1" height="1" fill="black"/>
<rect x="4" y="10" width="1" height="1" fill="black"/>
<rect x="6" y="10" width="1" height="1" fill="black"/>
<rect x="2" y="10" width="1" height="1" fill="black"/>
<rect x="6" y="8" width="1" height="1" fill="black"/>
<rect x="2" y="8" width="1" height="1" fill="black"/>
<rect x="6" y="4" width="1" height="1" fill="black"/>
<rect x="2" y="4" width="1" height="1" fill="black"/>
<rect x="6" width="1" height="1" fill="black"/>
<rect x="2" width="1" height="1" fill="black"/>
<rect x="16" y="2" width="1" height="1" fill="black"/>
<rect x="20" y="2" width="1" height="1" fill="black"/>
<rect x="22" y="2" width="1" height="1" fill="black"/>
<rect x="18" y="2" width="1" height="1" fill="black"/>
<rect x="16" y="6" width="1" height="1" fill="black"/>
<rect x="20" y="6" width="1" height="1" fill="black"/>
<rect x="22" y="6" width="1" height="1" fill="black"/>
<rect x="16" y="10" width="1" height="1" fill="black"/>
<rect x="20" y="10" width="1" height="1" fill="black"/>
<rect x="22" y="10" width="1" height="1" fill="black"/>
<rect x="18" y="10" width="1" height="1" fill="black"/>
<rect x="22" y="8" width="1" height="1" fill="black"/>
<rect x="18" y="8" width="1" height="1" fill="black"/>
<rect x="22" y="4" width="1" height="1" fill="black"/>
<rect x="18" y="4" width="1" height="1" fill="black"/>
<rect x="22" width="1" height="1" fill="black"/>
<rect x="18" width="1" height="1" fill="black"/>
<rect x="8" y="2" width="1" height="1" fill="black"/>
<rect x="12" y="2" width="1" height="1" fill="black"/>
<rect x="14" y="2" width="1" height="1" fill="black"/>
<rect x="10" y="2" width="1" height="1" fill="black"/>
<rect x="8" y="6" width="1" height="1" fill="black"/>
<rect x="12" y="6" width="1" height="1" fill="black"/>
<rect x="14" y="6" width="1" height="1" fill="black"/>
<rect x="8" y="10" width="1" height="1" fill="black"/>
<rect x="12" y="10" width="1" height="1" fill="black"/>
<rect x="14" y="10" width="1" height="1" fill="black"/>
<rect x="10" y="10" width="1" height="1" fill="black"/>
<rect x="14" y="8" width="1" height="1" fill="black"/>
<rect x="10" y="8" width="1" height="1" fill="black"/>
<rect x="14" y="4" width="1" height="1" fill="black"/>
<rect x="10" y="4" width="1" height="1" fill="black"/>
<rect x="14" width="1" height="1" fill="black"/>
<rect x="10" width="1" height="1" fill="black"/>
<rect x="24" y="2" width="1" height="1" fill="black"/>
<rect x="28" y="2" width="1" height="1" fill="black"/>
<rect x="30" y="2" width="1" height="1" fill="black"/>
<rect x="26" y="2" width="1" height="1" fill="black"/>
<rect x="24" y="6" width="1" height="1" fill="black"/>
<rect x="28" y="6" width="1" height="1" fill="black"/>
<rect x="30" y="6" width="1" height="1" fill="black"/>
<rect x="24" y="10" width="1" height="1" fill="black"/>
<rect x="28" y="10" width="1" height="1" fill="black"/>
<rect x="30" y="10" width="1" height="1" fill="black"/>
<rect x="26" y="10" width="1" height="1" fill="black"/>
<rect x="30" y="8" width="1" height="1" fill="black"/>
<rect x="26" y="8" width="1" height="1" fill="black"/>
<rect x="30" y="4" width="1" height="1" fill="black"/>
<rect x="26" y="4" width="1" height="1" fill="black"/>
<rect x="30" width="1" height="1" fill="black"/>
<rect x="26" width="1" height="1" fill="black"/>
</svg>
