<svg width="34" height="34" viewBox="0 0 34 34" fill="none" xmlns="http://www.w3.org/2000/svg">
<path d="M21 8H13L9 10L6 13V21L9 24L14 26H20L25 24L28 21V13L25 10L21 8Z" fill="white"/>
<path fill-rule="evenodd" clip-rule="evenodd" d="M18 7H19H20H22V8H24V9H26V10H27V11H28V12H29V13H30V15V17V19V21H29V22H28V23H27V24H26V25H25H24V26H22V27H20H17H16H13H12V26H10V25H8V24H7V23H6V22H5V21H4V13H5V12H6V11H7V10H8V9H9H10V8H12V7H15H18ZM27 17V15H26V17H27ZM27 21V19H26V21H27ZM25 21H24V23H25V21ZM24 10H25V11H24V10ZM23 11H22V13H23V11ZM21 9H20V11H21V9ZM27 13V12H26V13H27ZM24 13H25V15H24V13ZM24 17H25V19H24V17ZM8 23H9V21H8V22V23ZM10 23V24H11V23H10ZM23 23V24V25H22V23H23ZM23 19V21H22V19H23ZM23 15H22V17H23V15ZM21 13V15H20V13H21ZM21 21H20V23H21V21ZM20 17H21V19H20V17ZM19 9V8H18V9H19ZM17 26H16V25H17V26ZM18 25H19V23H18V25ZM15 8H14V9H15V8ZM16 11H17V9H16V11ZM19 11H18V13H19V11ZM18 19H19V21H18V19ZM19 17V15H18V17H19ZM16 13H17V15H16V13ZM17 21H16V23H17V21ZM16 17H17V19H16V17ZM12 9H13V11H12V9ZM15 13H14V11H15V13ZM14 19H15V21H14V19ZM15 17V15H14V17H15ZM12 13H13V15H12V13ZM15 23H14V25H15V23ZM10 13H11V11H10V13ZM13 21H12V23H13V21ZM12 17H13V19H12V17ZM8 13V15H9V13H8ZM11 21V19H10V21H11ZM10 15H11V17H10V15ZM8 17H9V19H8V17ZM6 17V15H7V17H6ZM6 19H7V21H6V19Z" fill="black"/>
</svg>
