<svg width="34" height="34" viewBox="0 0 34 34" fill="none" xmlns="http://www.w3.org/2000/svg">
<path d="M21 8H13L9 10L6 13V21L9 24L14 26H20L25 24L28 21V13L25 10L21 8Z" fill="white"/>
<path fill-rule="evenodd" clip-rule="evenodd" d="M12 7H20H22V8H24V9H26V10H27V11H28V12H29V13H30V21H29V22H28V23H27V24H26V25H24V26H22V27H12V26H10V25H8V24H7V23H6V22H5V21H4V13H5V12H6V11H7V10H8V9H10V8H12V7ZM14 8V9H11V10H9V11H8V12H7V13H6V21H7V22H8V23H9V24H11V25H14V26H20V25H23V24H25V23H26V22H27V21H28V13H27V12H26V11H25V10H23V9H22H20V8H14Z" fill="black"/>
</svg>
