<?xml version="1.0"?>
<svg xmlns="http://www.w3.org/2000/svg" xmlns:xlink="http://www.w3.org/1999/xlink" width="600" height="600" viewBox="-300 -300 600 600">
	<circle r="120" fill="none" stroke="#000"/>

	<g id="ic2" transform="rotate(22.5)">
		<path fill="#b4b4b4" stroke="#b4b4b4" d="M33,0 120,120 0,0"/>
		<path fill="#e1e1e1" stroke="#c2c2c2" d="M0,33 120,120 0,0"/>
	</g>
	<use xlink:href="#ic2" transform="rotate(45)"/>
	<use xlink:href="#ic2" transform="rotate(90)"/>
	<use xlink:href="#ic2" transform="rotate(135)"/>
	<use xlink:href="#ic2" transform="rotate(180)"/>
	<use xlink:href="#ic2" transform="rotate(225)"/>
	<use xlink:href="#ic2" transform="rotate(270)"/>
	<use xlink:href="#ic2" transform="rotate(315)"/>

	<g id="ic">
		<path fill="#999" stroke="#999" d="M48,0 171,171 0,0"/>
		<path fill="#c2c2c2" stroke="#c2c2c2" d="M0,48 171,171 0,0"/>
	</g>
	<use xlink:href="#ic" transform="rotate(90)"/>
	<use xlink:href="#ic" transform="rotate(180)"/>
	<use xlink:href="#ic" transform="rotate(270)"/>

	<g id="c" stroke="#000">
		<path d="M0,0 34,-34 244,0"/>
		<path fill="#fff" d="M0,0 34,34 244,0"/>
	</g>
	<use xlink:href="#c" transform="rotate(90)"/>
	<use xlink:href="#c" transform="rotate(180)"/>
	<use xlink:href="#c" transform="rotate(270)"/>

	<g font-family="DejaVu Sans Mono">
		<g font-size="48" font-weight="bold" text-anchor="middle">
			<text x="274" y="17">E</text>
			<text x="-274" y="17">W</text>
			<text y="290">S</text>
			<text y="-258">N</text>
		</g>
		<g font-size="29" font-weight="bold">
			<text x="-209" y="-177">NW</text>
			<text x="176" y="-177">NE</text>
			<text x="175" y="195">SE</text>
			<text x="-212" y="195">SW</text>
		</g>
		<g font-size="20" font-style="oblique">
			<text x="55" y="-166">NNE</text>
			<text x="163" y="-60">ENE</text>
			<text x="161" y="76">ESE</text>
			<text x="51" y="179">SSE</text>
			<text x="-89" y="179">SSW</text>
			<text x="-201" y="76">WSW</text>
			<text x="-199" y="-60">WNW</text>
			<text x="-87" y="-166">NNW</text>
		</g>
	</g>
</svg>
