<svg width="34" height="34" viewBox="0 0 34 34" fill="none" xmlns="http://www.w3.org/2000/svg">
<rect x="1" y="5" width="30" height="21" fill="white"/>
<path fill-rule="evenodd" clip-rule="evenodd" d="M29 5H2H1V6V26H2V28H30H33V25V7H32V6V5H29ZM29 25H2V6H29V25ZM5 8H3V10V13V14H5H13H14V13V10V8H13H5ZM13 13V10H5V13H13ZM5 22H3V20V17V16H5H13H14V17V20V22H13H5ZM13 17V20H5V17H13ZM28 8H26H18H17V10V13V14H18H26H28V13V10V8ZM18 10V13H26V10H18ZM26 22H28V20V17V16H26H18H17V17V20V22H18H26ZM18 17V20H26V17H18Z" fill="black"/>
</svg>
