<svg width="34" height="34" viewBox="0 0 34 34" fill="none" xmlns="http://www.w3.org/2000/svg">
<path fill-rule="evenodd" clip-rule="evenodd" d="M21 3.5L27.5 6.5L31 11C31.3333 11 32 12.2 32 17C32 23 29.5 24 28 24C26.8 24 23.1667 22.6667 21.5 22L19 22.5C18 25 14.8 30 10 30C5.2 30 2.66667 24.3333 2 21.5V15.5L4.5 9L7.5 5.5L13 3L21 3.5ZM23.5 14L26 13L29 14.5L28.5 18L25.5 19L22.5 17L23.5 14Z" fill="white"/>
<path fill-rule="evenodd" clip-rule="evenodd" d="M12 2H21V3H24V4H26V5H28V6H29V7H30V8H31V10H32V12H33V22H32V23H31V24H30V25H25V24H23V23H20V24H19V26H18V28H17V29H16V30H14V31H13H12H7V30H5V29H4V28H3V26H2V25V24V23H1V14H2V10H3V8H4V7H5V6H6V5H8V4H9V3H12V2ZM12 4V5H10V6H8V7H7V8H6V9H5V12H4V16H3V21H4V24H5V26H6V27H7V28H8V29H12V28H14V27H15V26H16V25H17V24V23H18V21H23V22H25V23H29V22H30V20H31V12H30V10H29V9H28V8H27V7H25V6H23V5H21V4H12ZM17 6H19V7H20V8H21V10H20V11H19V12H17V11H16V10H15V8H16V7H17V6ZM11 11H12V12H13V14H12V15H11V16H9V15H8V14H7V12H8V11H9V10H11V11ZM12 21H11V20H9V21H8V22H7V24H8V25H9V26H11V25H12V24H13V22H12V21ZM24 12H27V13H29V14H30V18H29V19H27V20H24V19H23V18H22V14H23V13H24V12ZM24 14V17H25V18H27V17H28V15H27V14H24Z" fill="black"/>
</svg>
